<svg viewBox="0 0 100 100" xmlns="http://www.w3.org/2000/svg" id="Coding-Ai-1--Streamline-Ux">
  <desc>
    Coding Ai 1 Streamline Illustration: https://streamlinehq.com
  </desc>
  <path d="M10.164 50a40 40 0 1 0 80 0 40 40 0 1 0 -80 0Z" fill="#daedf7" stroke="#daedf7" stroke-width="1"></path>
  <path d="m24.39 31.89 51.019 0 0 35.579 -51.019 0Z" fill="#adc4d9" stroke="#45413c" stroke-linecap="round" stroke-linejoin="round" stroke-width="1"></path>
  <path d="m29.76 39.274 40.278 0 0 13.426 -40.278 0Z" fill="#daedf7" stroke="#45413c" stroke-linecap="round" stroke-linejoin="round" stroke-width="1"></path>
  <path d="m43.857 55.386 12.083 0 0 6.713 -12.083 0Z" fill="#daedf7" stroke="#45413c" stroke-linecap="round" stroke-linejoin="round" stroke-width="1"></path>
  <path d="M67.695 35.918H32.1a1 1 0 0 1 -1 -1V31.89h37.595v3.028a1 1 0 0 1 -1 1Z" fill="#87898c" stroke="#45413c" stroke-linecap="round" stroke-linejoin="round" stroke-width="1"></path>
  <path d="m32.445 41.96 2.014 0" fill="#daedf7" stroke="#45413c" stroke-linecap="round" stroke-linejoin="round" stroke-width="1"></path>
  <path d="m37.144 41.96 2.014 0" fill="#daedf7" stroke="#45413c" stroke-linecap="round" stroke-linejoin="round" stroke-width="1"></path>
  <path d="m41.843 41.96 2.014 0" fill="#daedf7" stroke="#45413c" stroke-linecap="round" stroke-linejoin="round" stroke-width="1"></path>
  <path d="m46.543 41.96 2.013 0" fill="#daedf7" stroke="#45413c" stroke-linecap="round" stroke-linejoin="round" stroke-width="1"></path>
  <path d="m51.242 41.96 2.014 0" fill="#daedf7" stroke="#45413c" stroke-linecap="round" stroke-linejoin="round" stroke-width="1"></path>
  <path d="m55.941 41.96 2.014 0" fill="#daedf7" stroke="#45413c" stroke-linecap="round" stroke-linejoin="round" stroke-width="1"></path>
  <path d="m60.64 41.96 2.014 0" fill="#daedf7" stroke="#45413c" stroke-linecap="round" stroke-linejoin="round" stroke-width="1"></path>
  <path d="m65.339 41.96 2.014 0" fill="#daedf7" stroke="#45413c" stroke-linecap="round" stroke-linejoin="round" stroke-width="1"></path>
  <path d="m32.445 44.645 2.014 0" fill="#daedf7" stroke="#45413c" stroke-linecap="round" stroke-linejoin="round" stroke-width="1"></path>
  <path d="m37.144 44.645 2.014 0" fill="#daedf7" stroke="#45413c" stroke-linecap="round" stroke-linejoin="round" stroke-width="1"></path>
  <path d="m41.843 44.645 2.014 0" fill="#daedf7" stroke="#45413c" stroke-linecap="round" stroke-linejoin="round" stroke-width="1"></path>
  <path d="m46.543 44.645 2.013 0" fill="#daedf7" stroke="#45413c" stroke-linecap="round" stroke-linejoin="round" stroke-width="1"></path>
  <path d="m51.242 44.645 2.014 0" fill="#daedf7" stroke="#45413c" stroke-linecap="round" stroke-linejoin="round" stroke-width="1"></path>
  <path d="m55.941 44.645 2.014 0" fill="#daedf7" stroke="#45413c" stroke-linecap="round" stroke-linejoin="round" stroke-width="1"></path>
  <path d="m60.64 44.645 2.014 0" fill="#daedf7" stroke="#45413c" stroke-linecap="round" stroke-linejoin="round" stroke-width="1"></path>
  <path d="m65.339 44.645 2.014 0" fill="#daedf7" stroke="#45413c" stroke-linecap="round" stroke-linejoin="round" stroke-width="1"></path>
  <path d="m32.445 47.33 2.014 0" fill="#daedf7" stroke="#45413c" stroke-linecap="round" stroke-linejoin="round" stroke-width="1"></path>
  <path d="m37.144 47.33 2.014 0" fill="#daedf7" stroke="#45413c" stroke-linecap="round" stroke-linejoin="round" stroke-width="1"></path>
  <path d="m41.843 47.33 2.014 0" fill="#daedf7" stroke="#45413c" stroke-linecap="round" stroke-linejoin="round" stroke-width="1"></path>
  <path d="m46.543 47.33 2.013 0" fill="#daedf7" stroke="#45413c" stroke-linecap="round" stroke-linejoin="round" stroke-width="1"></path>
  <path d="m51.242 47.33 2.014 0" fill="#daedf7" stroke="#45413c" stroke-linecap="round" stroke-linejoin="round" stroke-width="1"></path>
  <path d="m55.941 47.33 2.014 0" fill="#daedf7" stroke="#45413c" stroke-linecap="round" stroke-linejoin="round" stroke-width="1"></path>
  <path d="m60.64 47.33 2.014 0" fill="#daedf7" stroke="#45413c" stroke-linecap="round" stroke-linejoin="round" stroke-width="1"></path>
  <path d="m65.339 47.33 2.014 0" fill="#daedf7" stroke="#45413c" stroke-linecap="round" stroke-linejoin="round" stroke-width="1"></path>
  <path d="m32.445 50.015 2.014 0" fill="#daedf7" stroke="#45413c" stroke-linecap="round" stroke-linejoin="round" stroke-width="1"></path>
  <path d="m37.144 50.015 2.014 0" fill="#daedf7" stroke="#45413c" stroke-linecap="round" stroke-linejoin="round" stroke-width="1"></path>
  <path d="m41.843 50.015 16.112 0" fill="#daedf7" stroke="#45413c" stroke-linecap="round" stroke-linejoin="round" stroke-width="1"></path>
  <path d="m60.64 50.015 2.014 0" fill="#daedf7" stroke="#45413c" stroke-linecap="round" stroke-linejoin="round" stroke-width="1"></path>
  <path d="m65.339 50.015 2.014 0" fill="#daedf7" stroke="#45413c" stroke-linecap="round" stroke-linejoin="round" stroke-width="1"></path>
  <path d="M81.45 15.779s0 -3.357 -2.685 -3.357H21.7c-2.685 0 -2.685 3.357 -2.685 3.357" fill="#adc4d9" stroke="#45413c" stroke-linecap="round" stroke-linejoin="round" stroke-width="1"></path>
  <path d="M81.343 17.122s-4.7 12.083 -5.371 13.426 -1.342 1.342 -1.342 1.342H25.061s-0.671 0 -1.343 -1.342 -4.7 -13.426 -4.7 -13.426 -0.671 -2.014 1.343 -2.014H80c2.014 0 1.343 2.014 1.343 2.014Z" fill="#00b8f0" stroke="#45413c" stroke-linecap="round" stroke-linejoin="round" stroke-width="1"></path>
  <path d="M58.76 15.108 37.95 31.89H25.061s-0.671 0 -1.343 -1.342 -4.7 -13.426 -4.7 -13.426 -0.671 -2.014 1.343 -2.014Z" fill="#4acfff" stroke-width="1"></path>
  <path d="M81.343 17.122s-4.7 12.083 -5.371 13.426 -1.342 1.342 -1.342 1.342H25.061s-0.671 0 -1.343 -1.342 -4.7 -13.426 -4.7 -13.426 -0.671 -2.014 1.343 -2.014H80c2.014 0 1.343 2.014 1.343 2.014Z" fill="none" stroke="#45413c" stroke-linecap="round" stroke-linejoin="round" stroke-width="1"></path>
  <path d="M79.98 70.553s6.513 -2.29 9.819 1.564c2.555 2.978 0.64 5.81 2.219 8.255" fill="none" stroke="#45413c" stroke-linecap="round" stroke-linejoin="round" stroke-width="1"></path>
  <path d="M74.846 71.772a3.459 3.459 0 1 0 6.918 0 3.459 3.459 0 1 0 -6.918 0Z" fill="#87898c" stroke="#45413c" stroke-linecap="round" stroke-linejoin="round" stroke-width="1"></path>
  <path d="m81.286 87.3 -5.247 -9.021a2.905 2.905 0 0 1 0.933 -3.905l4.181 -2.7a2.908 2.908 0 0 1 3.944 0.756l6.921 7.94Z" fill="#daedf7" stroke-width="1"></path>
  <path d="m82.215 74.216 6.964 7.989 2.839 -1.833 -6.918 -7.94a2.908 2.908 0 0 0 -3.944 -0.756l-2.067 1.335a3.039 3.039 0 0 1 3.126 1.205Z" fill="#ffffff" stroke-width="1"></path>
  <path d="m81.286 87.3 -5.247 -9.021a2.905 2.905 0 0 1 0.933 -3.905l4.181 -2.7a2.908 2.908 0 0 1 3.944 0.756l6.921 7.94" fill="none" stroke="#45413c" stroke-linecap="round" stroke-linejoin="round" stroke-width="1"></path>
  <path d="m81.286 87.3 -3.293 -5.669 1.511 -0.976a2.906 2.906 0 0 1 4.017 0.865l2.407 2.783" fill="#bdbec0" stroke="#45413c" stroke-linecap="round" stroke-linejoin="round" stroke-width="1"></path>
  <path d="M80.27 82.678a1.007 1.007 0 1 0 2.014 0 1.007 1.007 0 1 0 -2.014 0Z" fill="#45413c" stroke-width="1"></path>
  <path d="M58.227 64.847a1.782 1.782 0 0 1 2.166 -1.289c0.428 0.108 3.586 1.111 4.021 0.818 0.935 -0.629 0.744 -2.846 -0.561 -4.488l-6.747 -8.775a1.783 1.783 0 1 1 2.759 -2.258l6.435 8.174 -6.227 -9.892a1.783 1.783 0 1 1 2.932 -2.037l6.283 10.147 -4.95 -9.384a1.783 1.783 0 1 1 3.183 -1.606l1.088 2.158A1.778 1.778 0 0 1 72 45.893l5.112 10.988a30.129 30.129 0 0 1 3.111 8.713l0.98 1.646a0.933 0.933 0 0 1 -0.325 1.28l-7.288 4.339a0.933 0.933 0 0 1 -1.16 -0.164c-1.328 -1.42 -4.318 -2.294 -12.914 -5.681a1.783 1.783 0 0 1 -1.289 -2.167Z" fill="#bdbec0" stroke-width="1"></path>
  <path d="m72.231 53.962 -3.622 -7.543" fill="#adc4d9" stroke-width="1"></path>
  <path d="M58.227 64.847a1.782 1.782 0 0 1 2.166 -1.289c0.428 0.108 3.586 1.111 4.021 0.818 0.935 -0.629 0.744 -2.846 -0.561 -4.488l-6.747 -8.775a1.783 1.783 0 1 1 2.759 -2.258l6.435 8.174 -6.227 -9.892a1.783 1.783 0 1 1 2.932 -2.037l6.283 10.147 -4.95 -9.384a1.783 1.783 0 1 1 3.183 -1.606l1.088 2.158A1.778 1.778 0 0 1 72 45.893l5.112 10.988a30.129 30.129 0 0 1 3.111 8.713l0.98 1.646a0.933 0.933 0 0 1 -0.325 1.28l-7.288 4.339a0.933 0.933 0 0 1 -1.16 -0.164c-1.328 -1.42 -4.318 -2.294 -12.914 -5.681a1.783 1.783 0 0 1 -1.289 -2.167Z" fill="none" stroke="#45413c" stroke-linecap="round" stroke-linejoin="round" stroke-width="1"></path>
  <path d="m72.231 53.962 -3.622 -7.543" fill="none" stroke="#45413c" stroke-linecap="round" stroke-linejoin="round" stroke-width="1"></path>
  <path d="M64.414 64.376a10.97 10.97 0 0 1 5.135 2.558 11.781 11.781 0 0 1 3.264 6.006" fill="none" stroke="#45413c" stroke-linecap="round" stroke-linejoin="round" stroke-width="1"></path>
  <path d="m61.951 51.504 -2.735 2.353" fill="none" stroke="#45413c" stroke-linecap="round" stroke-linejoin="round" stroke-width="1"></path>
  <path d="m61.707 57.097 2.726 -2.442" fill="none" stroke="#45413c" stroke-linecap="round" stroke-linejoin="round" stroke-width="1"></path>
  <path d="m64.377 47.32 -2.975 1.922" fill="none" stroke="#45413c" stroke-linecap="round" stroke-linejoin="round" stroke-width="1"></path>
  <path d="m63.883 53.185 2.852 -2.057" fill="none" stroke="#45413c" stroke-linecap="round" stroke-linejoin="round" stroke-width="1"></path>
  <path d="m68.864 46.95 -3.031 1.781" fill="none" stroke="#45413c" stroke-linecap="round" stroke-linejoin="round" stroke-width="1"></path>
  <path d="m70.593 50.551 -2.812 1.844" fill="none" stroke="#45413c" stroke-linecap="round" stroke-linejoin="round" stroke-width="1"></path>
  <path d="m72.883 47.788 -2.856 1.584" fill="none" stroke="#45413c" stroke-linecap="round" stroke-linejoin="round" stroke-width="1"></path>
  <path d="m74.35 50.941 -2.898 1.399" fill="none" stroke="#45413c" stroke-linecap="round" stroke-linejoin="round" stroke-width="1"></path>
  <path d="M80.224 65.594a30.129 30.129 0 0 0 -3.111 -8.713s-5.813 -0.157 -6.186 3.706 3.013 6.99 4.492 7.381 4.805 -2.374 4.805 -2.374Z" fill="#ffffff" stroke="#45413c" stroke-linecap="round" stroke-linejoin="round" stroke-width="1"></path>
  <path d="M20.02 70.553s-6.513 -2.29 -9.819 1.564c-2.555 2.978 -0.64 5.81 -2.219 8.255" fill="none" stroke="#45413c" stroke-linecap="round" stroke-linejoin="round" stroke-width="1"></path>
  <path d="M18.236 71.772a3.459 3.459 0 1 0 6.918 0 3.459 3.459 0 1 0 -6.918 0Z" fill="#87898c" stroke="#45413c" stroke-linecap="round" stroke-linejoin="round" stroke-width="1"></path>
  <path d="m18.714 87.3 5.247 -9.021a2.905 2.905 0 0 0 -0.933 -3.905l-4.181 -2.7a2.908 2.908 0 0 0 -3.944 0.756l-6.921 7.94Z" fill="#daedf7" stroke-width="1"></path>
  <path d="m17.785 74.216 -6.964 7.989 -2.839 -1.833 6.921 -7.94a2.908 2.908 0 0 1 3.944 -0.756l2.067 1.335a3.039 3.039 0 0 0 -3.129 1.205Z" fill="#ffffff" stroke-width="1"></path>
  <path d="m18.714 87.3 5.247 -9.021a2.905 2.905 0 0 0 -0.933 -3.905l-4.181 -2.7a2.908 2.908 0 0 0 -3.944 0.756l-6.921 7.94" fill="none" stroke="#45413c" stroke-linecap="round" stroke-linejoin="round" stroke-width="1"></path>
  <path d="m18.714 87.3 3.293 -5.669 -1.507 -0.974a2.906 2.906 0 0 0 -4.017 0.865l-2.407 2.783" fill="#bdbec0" stroke="#45413c" stroke-linecap="round" stroke-linejoin="round" stroke-width="1"></path>
  <path d="M17.716 82.678a1.007 1.007 0 1 0 2.014 0 1.007 1.007 0 1 0 -2.014 0Z" fill="#45413c" stroke-width="1"></path>
  <path d="M41.773 64.847a1.782 1.782 0 0 0 -2.166 -1.289c-0.428 0.108 -3.586 1.111 -4.021 0.818 -0.935 -0.629 -0.744 -2.846 0.561 -4.488l6.747 -8.775a1.783 1.783 0 1 0 -2.759 -2.258L33.7 57.029l6.227 -9.892a1.783 1.783 0 1 0 -2.932 -2.037l-6.283 10.151 4.95 -9.384a1.783 1.783 0 1 0 -3.183 -1.606l-1.088 2.158A1.778 1.778 0 0 0 28 45.893l-5.113 10.988a30.129 30.129 0 0 0 -3.111 8.713L18.8 67.24a0.933 0.933 0 0 0 0.325 1.28l7.288 4.339a0.933 0.933 0 0 0 1.16 -0.164c1.328 -1.42 4.318 -2.294 12.914 -5.681a1.783 1.783 0 0 0 1.286 -2.167Z" fill="#bdbec0" stroke-width="1"></path>
  <path d="m27.769 53.962 3.622 -7.543" fill="#adc4d9" stroke-width="1"></path>
  <path d="M41.773 64.847a1.782 1.782 0 0 0 -2.166 -1.289c-0.428 0.108 -3.586 1.111 -4.021 0.818 -0.935 -0.629 -0.744 -2.846 0.561 -4.488l6.747 -8.775a1.783 1.783 0 1 0 -2.759 -2.258L33.7 57.029l6.227 -9.892a1.783 1.783 0 1 0 -2.932 -2.037l-6.283 10.151 4.95 -9.384a1.783 1.783 0 1 0 -3.183 -1.606l-1.088 2.158A1.778 1.778 0 0 0 28 45.893l-5.113 10.988a30.129 30.129 0 0 0 -3.111 8.713L18.8 67.24a0.933 0.933 0 0 0 0.325 1.28l7.288 4.339a0.933 0.933 0 0 0 1.16 -0.164c1.328 -1.42 4.318 -2.294 12.914 -5.681a1.783 1.783 0 0 0 1.286 -2.167Z" fill="none" stroke="#45413c" stroke-linecap="round" stroke-linejoin="round" stroke-width="1"></path>
  <path d="m27.769 53.962 3.622 -7.543" fill="none" stroke="#45413c" stroke-linecap="round" stroke-linejoin="round" stroke-width="1"></path>
  <path d="M35.586 64.376a10.97 10.97 0 0 0 -5.135 2.558 11.781 11.781 0 0 0 -3.264 6.006" fill="none" stroke="#45413c" stroke-linecap="round" stroke-linejoin="round" stroke-width="1"></path>
  <path d="m38.049 51.504 2.735 2.353" fill="none" stroke="#45413c" stroke-linecap="round" stroke-linejoin="round" stroke-width="1"></path>
  <path d="m38.293 57.097 -2.726 -2.442" fill="none" stroke="#45413c" stroke-linecap="round" stroke-linejoin="round" stroke-width="1"></path>
  <path d="m35.623 47.32 2.975 1.922" fill="none" stroke="#45413c" stroke-linecap="round" stroke-linejoin="round" stroke-width="1"></path>
  <path d="m36.117 53.185 -2.852 -2.057" fill="none" stroke="#45413c" stroke-linecap="round" stroke-linejoin="round" stroke-width="1"></path>
  <path d="m31.136 46.95 3.031 1.781" fill="none" stroke="#45413c" stroke-linecap="round" stroke-linejoin="round" stroke-width="1"></path>
  <path d="m29.407 50.551 2.812 1.844" fill="none" stroke="#45413c" stroke-linecap="round" stroke-linejoin="round" stroke-width="1"></path>
  <path d="m27.117 47.788 2.856 1.584" fill="none" stroke="#45413c" stroke-linecap="round" stroke-linejoin="round" stroke-width="1"></path>
  <path d="m25.65 50.941 2.898 1.399" fill="none" stroke="#45413c" stroke-linecap="round" stroke-linejoin="round" stroke-width="1"></path>
  <path d="M19.776 65.594a30.129 30.129 0 0 1 3.111 -8.713s5.813 -0.157 6.186 3.706 -3.013 6.99 -4.492 7.381 -4.805 -2.374 -4.805 -2.374Z" fill="#ffffff" stroke="#45413c" stroke-linecap="round" stroke-linejoin="round" stroke-width="1"></path>
</svg>